<?xml version="1.0" encoding="UTF-8"?>
<svg width="90px" height="90px" viewBox="0 0 90 90" version="1.1" xmlns="http://www.w3.org/2000/svg" xmlns:xlink="http://www.w3.org/1999/xlink">
    <!-- Generator: sketchtool 41.2 (35397) - http://www.bohemiancoding.com/sketch -->
    <title>1069469D-DE58-4037-8C7B-E5ABF30D8787</title>
    <desc>Created with sketchtool.</desc>
    <defs>
        <rect id="path-1" x="0" y="0" width="286" height="126" rx="8"></rect>
        <mask id="mask-2" maskContentUnits="userSpaceOnUse" maskUnits="objectBoundingBox" x="0" y="0" width="286" height="126" fill="white">
            <use xlink:href="#path-1"></use>
        </mask>
    </defs>
    <g id="Page-1" stroke="none" stroke-width="1" fill="none" fill-rule="evenodd">
        <g id="codequiz-B" transform="translate(-926.000000, -579.000000)">
            <rect id="Rectangle-4" fill="#FFFFFF" x="180" y="274" width="1080" height="446" rx="4"></rect>
            <g id="jquery-1" transform="translate(931.000000, 584.000000)" fill="#21609B">
                <g id="Group">
                    <g id="Shape">
                        <path d="M68.5582901,51.3669364 L68.2476029,52.1722497 C62.9535563,62.4821157 53.5718875,68.8071489 40.1907016,69.086149 C33.9352252,69.2152156 27.9749789,67.6099988 24.0813428,65.8648955 C15.6788794,62.0895061 8.61113392,55.0882261 4.75150344,47.6077768 C-0.785219176,36.8844342 -1.78374592,21.9675885 9.72868011,10.8261321 C9.90643642,10.8261321 8.3321338,13.2420722 8.50989011,13.2420722 L8.19302017,14.2730588 C-0.102789518,40.2455742 25.4562492,62.5037556 50.3019442,59.9579761 C56.2730105,59.3458761 63.8871634,56.0759329 68.5582901,51.3669364"></path>
                        <path d="M53.5231977,40.6273638 C59.774037,40.6698708 66.3031035,37.7484845 70.1696897,33.6469509 C66.7869098,42.2333535 56.9925371,47.7523004 43.8586644,45.9971501 C32.8609588,44.525637 22.3849294,33.4591474 21.3060258,22.3702451 C20.5169424,14.3001087 23.3293564,9.48368555 27.9641589,3.64091293 C26.3535322,6.69677575 25.7514793,9.05320613 25.6015457,10.5564062 C23.8409854,28.0136215 39.5469146,40.5353943 53.5231977,40.6273638"></path>
                        <path d="M69.5413597,18.9441855 C68.5698829,21.173095 62.9751962,25.3820553 60.5043835,25.9083686 C50.7208308,27.9927545 44.4553073,23.3533148 41.1729984,18.0739524 C40.6853279,17.2856418 39.7834078,15.1324719 39.6218814,14.5845188 C38.3489917,10.2565391 38.9340418,3.71046975 42.7310711,0.322279918 C41.5872479,3.54430624 41.4203116,7.28646299 42.0223644,9.71940587 C42.3871513,11.1901461 43.4985147,13.7583384 44.6106509,15.3736022 C46.6339814,18.3158556 47.9176911,19.0307451 50.5167975,20.5934549 C51.6876706,21.2967516 52.9435575,21.8609347 53.4861007,22.0155054 C55.9507306,22.7412148 61.1543533,24.6524816 69.5421326,18.9441855"></path>
                    </g>
                </g>
            </g>
            <g id="Group-2-Copy-5" transform="translate(911.000000, 561.000000)" stroke="#D3DDEB" stroke-width="2">
                <use id="Rectangle-5" mask="url(#mask-2)" xlink:href="#path-1"></use>
            </g>
        </g>
    </g>
</svg>