<?xml version="1.0" encoding="UTF-8"?>
<svg width="71px" height="60px" viewBox="0 0 71 60" version="1.1" xmlns="http://www.w3.org/2000/svg" xmlns:xlink="http://www.w3.org/1999/xlink">
    <!-- Generator: sketchtool 41.2 (35397) - http://www.bohemiancoding.com/sketch -->
    <title>015FCEFE-0D00-40A0-A725-E77B0BE07416</title>
    <desc>Created with sketchtool.</desc>
    <defs>
        <rect id="path-1" x="0" y="0.75" width="46.8297872" height="59.25" rx="4"></rect>
        <mask id="mask-2" maskContentUnits="userSpaceOnUse" maskUnits="objectBoundingBox" x="0" y="0" width="46.8297872" height="59.25" fill="white">
            <use xlink:href="#path-1"></use>
        </mask>
    </defs>
    <g id="Page-1" stroke="none" stroke-width="1" fill="none" fill-rule="evenodd">
        <g id="codequiz-B" transform="translate(-685.000000, -66.000000)">
            <g id="logo" transform="translate(685.000000, 66.000000)">
                <use id="Rectangle-3" stroke="#FFFFFF" mask="url(#mask-2)" stroke-width="6" fill="#4175CB" xlink:href="#path-1"></use>
                <path d="M70.9464242,50.3155559 C70.9464242,50.3155559 70.8570132,50.17214 70.7507205,49.9902314 C70.7638507,50.0194113 70.7701033,50.0361742 70.7701033,50.0361742 C70.8420072,50.2062866 70.7613497,50.4037164 70.5900308,50.475114 C70.4187119,50.5471324 70.2067516,50.6818565 70.1342224,50.511744 L70.0273044,50.2646464 C70.0273044,50.2646464 69.9166348,50.0007858 69.7428149,49.5941301 C69.5733717,49.1905786 69.4201851,48.6721702 69.0662927,47.9240479 C68.6836387,47.1877217 68.2472131,46.2794205 67.6744827,45.2736461 C67.1311391,44.2517296 66.4571179,43.1335816 65.7236977,41.911752 C65.3673043,41.2946287 64.9408828,40.6843347 64.5325935,40.0343064 C64.1136749,39.3898658 63.7041351,38.7087951 63.2264429,38.0451082 C62.2979443,36.7003505 61.3238024,35.277366 60.2271111,33.868661 C59.1773137,32.4245676 57.9955882,31.0090332 56.804484,29.5612148 C56.2217495,28.8261303 55.5908706,28.1233299 54.9543645,27.4192878 C54.3209847,26.7127623 53.6857291,26.0031326 53.0504735,25.2941237 C51.7455734,23.9065275 50.390028,22.5648741 49.0832522,21.218254 C47.7089492,19.9393063 46.3559048,18.6820882 45.046628,17.4646045 C43.6829543,16.3061014 42.3655492,15.1867117 41.1162965,14.125061 C40.501049,13.5818186 39.8720459,13.0913484 39.2555478,12.6263329 C38.6434265,12.1557299 38.0519385,11.7012688 37.4842101,11.2648124 C36.345627,10.3962455 35.3383467,9.54878742 34.3660805,8.90683018 C33.4144476,8.23507221 32.5847387,7.64961217 31.9013387,7.16659211 C30.5370398,6.19620606 29.7573511,5.64116759 29.7573511,5.64116759 C29.7573511,5.64116759 30.5620499,6.15833431 31.9707417,7.06415212 C32.6741497,7.51985485 33.5282434,8.07303078 34.5073873,8.70815869 C35.5021626,9.32279861 36.5388297,10.1354892 37.7042987,10.975497 C38.2814059,11.4026407 38.8828979,11.8484099 39.5050232,12.3097003 C40.1321506,12.765403 40.7724082,13.2459396 41.3989103,13.7804901 C42.6700467,14.8266197 44.0162134,15.9236588 45.3823881,17.0889912 C46.7054204,18.3039916 48.0722204,19.5587262 49.4615294,20.833328 C50.782686,22.1774647 52.1538627,23.5172556 53.474394,24.9036101 C54.1171527,25.6126189 54.7611618,26.3216278 55.4014194,27.0275324 C56.0454285,27.7315745 56.6863114,28.4343749 57.2752984,29.1694594 C58.4832844,30.616657 59.6812665,32.0346748 60.7473204,33.4800099 C61.8590177,34.8899566 62.8481657,36.3148037 63.7929209,37.6626655 C64.6701488,38.930438 65.4548396,40.1609595 66.1726284,41.3157375 C67.0798684,40.7054436 67.7738977,39.8064551 67.8539299,37.9302512 C68.0171205,35.5486767 67.7207513,33.5191233 66.0181912,29.8983354 L64.3537715,30.3763887 L65.1347108,28.1196048 C63.9173459,25.6188274 62.9669635,22.9684256 61.1193451,20.3372701 L59.0260028,22.6685558 L60.192097,19.2911405 C57.7398603,15.8541238 54.8349415,13.0956943 51.6905513,10.1472853 L50.4131623,12.4971965 L50.4181643,8.97015671 C45.9419882,4.89490781 41.2275913,2.608944 36.8664615,1.40077302 L35.9748528,4.43113406 L35.5371767,1.06178979 C26.4916621,-1.03978205 19.3150244,1.33620478 19.649534,1.46161616 C19.823354,1.71305976 22.9990067,7.97307418 28.4255652,14.7185921 L33.1455894,12.9994628 L29.3009174,15.7858305 C30.9890967,17.8085545 32.8767312,19.8443164 34.9388109,21.7552878 L39.5456646,20.5080034 L35.9204559,22.704565 C36.8089384,23.5135305 37.1009309,23.6799179 38.053189,24.4280402 C39.4281173,25.4865867 40.7774102,26.61591 42.1029435,27.770688 L46.3509028,27.0759586 L43.7748663,29.2526531 C46.2683696,31.5038494 48.6499528,33.8009885 50.877099,35.8870391 L55.1206814,35.883314 L52.3264321,37.2771187 C55.4683213,40.1895185 57.6554514,41.9707326 60.0051468,43.0733594 C62.0303367,43.9661394 63.0882623,42.902626 64.4756956,42.2134843 C64.5400965,42.1812002 64.6044974,42.1501578 64.6695236,42.1191154 C64.7189185,42.2091384 64.7751911,42.2985405 64.8227102,42.3885636 C65.5023587,43.6265353 66.124484,44.7608253 66.6209338,45.7920545 C67.1486461,46.8102459 67.5388031,47.7247556 67.8858177,48.4666694 C68.2009445,49.2172751 68.4591734,49.8095645 68.6029813,50.2019407 C68.7549174,50.6085964 68.9837595,51.1971607 68.9837595,51.1971607 L68.997515,51.2350324 C69.0006413,51.2437243 69.005018,51.2524162 69.0081443,51.2617289 C69.2213551,51.7751705 69.665909,51.6491383 70.182992,51.4380499 C70.7019508,51.2257197 71.159635,50.8302393 70.9464242,50.3155559 Z" id="Shape" fill="#FFFFFF" transform="translate(45.319149, 25.909723) scale(-1, 1) translate(-45.319149, -25.909723) "></path>
            </g>
        </g>
    </g>
</svg>