<?xml version="1.0" encoding="UTF-8"?>
<svg width="90px" height="90px" viewBox="0 0 90 90" version="1.1" xmlns="http://www.w3.org/2000/svg" xmlns:xlink="http://www.w3.org/1999/xlink">
    <!-- Generator: sketchtool 41.2 (35397) - http://www.bohemiancoding.com/sketch -->
    <title>B5028C11-E4BE-4D44-AA57-5EE9ADBF6F81</title>
    <desc>Created with sketchtool.</desc>
    <defs>
        <rect id="path-1" x="0" y="0" width="286" height="126" rx="8"></rect>
        <mask id="mask-2" maskContentUnits="userSpaceOnUse" maskUnits="objectBoundingBox" x="0" y="0" width="286" height="126" fill="white">
            <use xlink:href="#path-1"></use>
        </mask>
    </defs>
    <g id="Page-1" stroke="none" stroke-width="1" fill="none" fill-rule="evenodd">
        <g id="codequiz-B" transform="translate(-926.000000, -436.000000)">
            <rect id="Rectangle-4" fill="#FFFFFF" x="180" y="274" width="1080" height="446" rx="4"></rect>
            <g id="nodejs-icon" transform="translate(935.000000, 441.000000)" fill="#8CC84B">
                <g id="Group">
                    <path d="M32.8983434,1.01560284 C34.8642696,-0.114893617 37.424887,-0.12 39.389119,1.01560284 C49.2709902,6.62524823 59.1559676,12.2260993 69.0361446,17.8391489 C70.8944842,18.8907801 72.1375188,20.9685106 72.1185994,23.1197163 L72.1185994,56.8695035 C72.132436,59.1097872 70.7665663,61.2371631 68.8060053,62.2649645 C58.9566077,67.8436879 49.1122929,73.4292199 39.2645896,79.0079433 C37.2580008,80.1605674 34.6459902,80.071773 32.7020896,78.8246809 C29.749247,77.1049645 26.7913215,75.3937589 23.8381965,73.6757447 C23.2347515,73.3143262 22.5544992,73.0266667 22.1283886,72.4388652 C22.5050828,71.9287943 23.178558,71.8652482 23.7258095,71.6425532 C24.9583961,71.2487943 26.0904556,70.6167376 27.2227974,70.0034043 C27.5091303,69.8065248 27.8587161,69.8819858 28.133189,70.058156 C30.6582267,71.5126241 33.1609563,73.0093617 35.6944654,74.4499291 C36.2349398,74.7634043 36.7821913,74.347234 37.2441642,74.0885106 C46.9094503,68.6005674 56.5865964,63.1333333 66.2501883,57.6436879 C66.6082455,57.4706383 66.8061935,57.0887943 66.7771084,56.6947518 C66.7838855,45.5614184 66.7788027,34.4260993 66.780497,23.292766 C66.821442,22.8456738 66.5639119,22.4346099 66.1615211,22.2516312 C56.3462914,16.6984397 46.5361446,11.1367376 36.7226092,5.58212766 C36.3745857,5.34175688 35.9152708,5.34108061 35.5665474,5.58042553 C25.753012,11.1367376 15.9445595,16.7035461 6.1310241,22.2564539 C5.73004518,22.4397163 5.4609375,22.8439716 5.50865964,23.292766 C5.51035392,34.4260993 5.50865964,45.5614184 5.50865964,56.6964539 C5.47380743,57.0902296 5.68677647,57.464143 6.04235693,57.6334752 C8.66114458,59.1253901 11.2833208,60.6068085 13.9038027,62.093617 C15.3800828,62.8919149 17.192677,63.3662411 18.819183,62.7546099 C20.2545181,62.2374468 21.2606363,60.7659574 21.2332455,59.2348936 C21.2467997,48.1665248 21.2264684,37.0964539 21.2434111,26.0297872 C21.2075489,25.5384397 21.6714985,25.1324823 22.1470256,25.1787234 C23.4053087,25.1702128 24.6652861,25.1617021 25.9235693,25.1821277 C26.4487952,25.1702128 26.810241,25.6992908 26.7452937,26.1943262 C26.7402108,37.332766 26.7588479,48.4714894 26.7368223,59.6099291 C26.7402108,62.5784397 25.5262613,65.8085106 22.7931099,67.2609929 C19.4260166,69.0133333 15.2643072,68.6417021 11.9378765,66.9614184 C9.05817018,65.5174468 6.31005271,63.8133333 3.48145708,62.266383 C1.51581325,61.2442553 0.156720633,59.1083688 0.170557229,56.8697872 L0.170557229,23.1197163 C0.149943524,20.9239716 1.44239458,18.8085106 3.35862199,17.7721986 C13.2063253,12.1889362 23.0523343,6.60141844 32.8983434,1.01560284 Z" id="Shape"></path>
                    <path d="M41.4894578,24.3943262 C45.7844503,24.1165957 50.382436,24.2297872 54.2473645,26.355461 C57.2397402,27.9843972 58.8987199,31.4031206 58.9515248,34.7429787 C58.8679405,35.1934752 58.3991905,35.4419858 57.9711032,35.4110638 C56.7249623,35.4093617 55.4785392,35.4280851 54.2323983,35.4025532 C53.7037839,35.4229787 53.396555,34.9333333 53.3301958,34.4638298 C52.9721386,32.8658156 52.1046687,31.2831206 50.6074925,30.5123404 C48.3092056,29.3563121 45.6443901,29.4144681 43.1382718,29.4385816 C41.3087349,29.5361702 39.3413968,29.6953191 37.7914157,30.7761702 C36.6014684,31.5948936 36.2400226,33.2476596 36.6647214,34.5787234 C37.0651355,35.5344681 38.1633095,35.8428369 39.0618411,36.1270922 C44.2378577,37.4870922 49.7227974,37.351773 54.7999812,39.1415603 C56.9020143,39.8712057 58.958302,41.2896454 59.677805,43.5007092 C60.6189759,46.4641135 60.2064194,50.0062411 58.1077748,52.3852482 C56.4058735,54.3429787 53.9271461,55.4085106 51.4549134,55.987234 C48.1660392,56.7239716 44.7529179,56.742695 41.412933,56.4156028 C38.272308,56.0558865 35.0040474,55.2269504 32.5795369,53.0771631 C30.5063065,51.2686525 29.4936935,48.4507801 29.5942206,45.7310638 C29.6182229,45.271773 30.0734187,44.9514894 30.5113893,44.9892199 C31.7662839,44.9790071 33.0211785,44.9756028 34.276073,44.990922 C34.7772967,44.9548936 35.1489081,45.3900709 35.1746047,45.8646809 C35.4061559,47.387234 35.9757154,48.9852482 37.2972515,49.8879433 C39.8477033,51.5409929 43.0479104,51.4278014 45.9682794,51.4740426 C48.3877071,51.3662411 51.1036333,51.333617 53.0780309,49.7270922 C54.1197289,48.8107801 54.4283697,47.2777305 54.1468373,45.9588652 C53.8418675,44.8453901 52.6824172,44.3265248 51.686747,43.987234 C46.5770896,42.3634043 41.0308735,42.9526241 35.9706325,41.1163121 C33.9163215,40.3869504 31.9297816,39.0079433 31.1405309,36.8876596 C30.0392508,33.8868085 30.543863,30.1750355 32.8624812,27.8763121 C35.1232116,25.5897872 38.3866717,24.7092199 41.4894578,24.3940426 L41.4894578,24.3943262 Z" id="Shape"></path>
                </g>
            </g>
            <g id="Group-2" transform="translate(911.000000, 418.000000)" stroke="#D3DDEB" stroke-width="2">
                <use id="Rectangle-5" mask="url(#mask-2)" xlink:href="#path-1"></use>
            </g>
        </g>
    </g>
</svg>