<?xml version="1.0" encoding="UTF-8"?>
<svg width="90px" height="90px" viewBox="0 0 90 90" version="1.1" xmlns="http://www.w3.org/2000/svg" xmlns:xlink="http://www.w3.org/1999/xlink">
    <!-- Generator: sketchtool 41.2 (35397) - http://www.bohemiancoding.com/sketch -->
    <title>03E8D469-8B3B-430F-9F14-206CE148F4E9</title>
    <desc>Created with sketchtool.</desc>
    <defs>
        <linearGradient x1="12.959%" y1="12.2077494%" x2="79.639%" y2="78.0756371%" id="linearGradient-1">
            <stop stop-color="#387EB8" offset="0%"></stop>
            <stop stop-color="#366994" offset="100%"></stop>
        </linearGradient>
        <linearGradient x1="19.128%" y1="20.7098007%" x2="90.742%" y2="88.2581512%" id="linearGradient-2">
            <stop stop-color="#FFE052" offset="0%"></stop>
            <stop stop-color="#FFC331" offset="100%"></stop>
        </linearGradient>
        <rect id="path-3" x="0" y="0" width="286" height="126" rx="8"></rect>
        <mask id="mask-4" maskContentUnits="userSpaceOnUse" maskUnits="objectBoundingBox" x="0" y="0" width="286" height="126" fill="white">
            <use xlink:href="#path-3"></use>
        </mask>
        <rect id="path-5" x="0" y="0" width="286" height="126" rx="8"></rect>
        <mask id="mask-6" maskContentUnits="userSpaceOnUse" maskUnits="objectBoundingBox" x="0" y="0" width="286" height="126" fill="white">
            <use xlink:href="#path-5"></use>
        </mask>
    </defs>
    <g id="Page-1" stroke="none" stroke-width="1" fill="none" fill-rule="evenodd">
        <g id="codequiz-B" transform="translate(-593.000000, -579.000000)">
            <rect id="Rectangle-4" fill="#FFFFFF" x="180" y="274" width="1080" height="446" rx="4"></rect>
            <g id="python-5" transform="translate(598.000000, 584.000000)">
                <g id="Group">
                    <path d="M39.66125,0.0223058824 C19.40125,0.0223058824 20.66625,8.73244314 20.66625,8.73244314 L20.68875,17.7564118 L40.0225,17.7564118 L40.0225,20.4656471 L13.0096875,20.4656471 C13.0096875,20.4656471 0.0453125,19.0080196 0.0453125,39.2738431 C0.0453125,59.5402863 11.3609375,58.8215412 11.3609375,58.8215412 L18.1140625,58.8215412 L18.1140625,49.4171333 C18.1140625,49.4171333 17.75,38.1991333 29.2490625,38.1991333 L48.4246875,38.1991333 C48.4246875,38.1991333 59.198125,38.3716941 59.198125,27.8767765 L59.198125,10.5240392 C59.198125,10.5240392 60.834375,0.0223058824 39.66125,0.0223058824 Z M29.000625,6.0907451 C29.9233353,6.08992211 30.8084925,6.4529406 31.4609475,7.09976659 C32.1134025,7.74659257 32.4795801,8.62411304 32.47875,9.53886275 C32.4795801,10.4536125 32.1134025,11.3311329 31.4609475,11.9779589 C30.8084925,12.6247849 29.9233353,12.9878034 29.000625,12.9869804 C28.0779147,12.9878034 27.1927575,12.6247849 26.5403025,11.9779589 C25.8878475,11.3311329 25.5216699,10.4536125 25.5225,9.53886275 C25.5216699,8.62411304 25.8878475,7.74659257 26.5403025,7.09976659 C27.1927575,6.4529406 28.0779147,6.08992211 29.000625,6.0907451 L29.000625,6.0907451 Z" id="Shape" fill="url(#linearGradient-1)"></path>
                    <path d="M40.2365625,78.7292314 C60.4965625,78.7292314 59.2315625,70.0190941 59.2315625,70.0190941 L59.2090625,60.9954353 L39.875,60.9954353 L39.875,58.2862 L66.8878125,58.2862 C66.8878125,58.2862 79.8521875,59.7438275 79.8521875,39.4773843 C79.8521875,19.211251 68.5365625,19.9299961 68.5365625,19.9299961 L61.7834375,19.9299961 L61.7834375,29.3340941 C61.7834375,29.3340941 62.1475,40.5520941 50.6484375,40.5520941 L31.4728125,40.5520941 C31.4728125,40.5520941 20.699375,40.3795333 20.699375,50.8747608 L20.699375,68.2278078 C20.699375,68.2278078 19.0634375,78.7292314 40.23625,78.7292314 L40.2365625,78.7292314 Z M50.8971875,72.6614118 C49.9744772,72.6622348 49.08932,72.2992163 48.436865,71.6523903 C47.78441,71.0055643 47.4182324,70.1280438 47.4190625,69.2132941 C47.4181493,68.2984908 47.7842903,67.4208906 48.4367544,66.7739976 C49.0892184,66.1271045 49.974423,65.7640436 50.8971875,65.7648667 C51.8198978,65.7640437 52.705055,66.1270622 53.35751,66.7738882 C54.009965,67.4207141 54.3761426,68.2982346 54.3753125,69.2129843 C54.3761426,70.127734 54.009965,71.0052545 53.35751,71.6520805 C52.705055,72.2989065 51.8198978,72.6619249 50.8971875,72.661102 L50.8971875,72.6614118 Z" id="Shape" fill="url(#linearGradient-2)"></path>
                </g>
            </g>
            <g id="Group-2-Copy-3" transform="translate(573.000000, 561.000000)" stroke="#D3DDEB" stroke-width="2">
                <use id="Rectangle-5" mask="url(#mask-4)" xlink:href="#path-3"></use>
                <use id="Rectangle-5-Copy" mask="url(#mask-6)" xlink:href="#path-5"></use>
            </g>
        </g>
    </g>
</svg>