<?xml version="1.0" encoding="UTF-8"?>
<svg width="90px" height="90px" viewBox="0 0 90 90" version="1.1" xmlns="http://www.w3.org/2000/svg" xmlns:xlink="http://www.w3.org/1999/xlink">
    <!-- Generator: sketchtool 41.2 (35397) - http://www.bohemiancoding.com/sketch -->
    <title>F96EC6DC-99FC-45C4-A9E0-05C829F94DA1</title>
    <desc>Created with sketchtool.</desc>
    <defs>
        <rect id="path-1" x="0" y="0" width="286" height="126" rx="8"></rect>
        <mask id="mask-2" maskContentUnits="userSpaceOnUse" maskUnits="objectBoundingBox" x="0" y="0" width="286" height="126" fill="white">
            <use xlink:href="#path-1"></use>
        </mask>
        <rect id="path-3" x="0" y="0" width="286" height="126" rx="8"></rect>
        <mask id="mask-4" maskContentUnits="userSpaceOnUse" maskUnits="objectBoundingBox" x="0" y="0" width="286" height="126" fill="white">
            <use xlink:href="#path-3"></use>
        </mask>
    </defs>
    <g id="Page-1" stroke="none" stroke-width="1" fill="none" fill-rule="evenodd">
        <g id="codequiz-B" transform="translate(-258.000000, -578.000000)">
            <rect id="Rectangle-4" fill="#FFFFFF" x="180" y="274" width="1080" height="446" rx="4"></rect>
            <g id="react" transform="translate(263.000000, 587.000000)">
                <g id="Group">
                    <path d="M0.235625,35.9217391 C0.235625,41.9368696 6.0990625,47.5519304 15.3428125,50.717113 C13.496875,60.026087 15.0121875,67.5294261 20.0728125,70.4529391 C25.274375,73.4581565 33.02375,71.3779826 40.3790625,64.937113 C47.54875,71.1178435 54.7946875,73.5501913 59.8509375,70.6182261 C65.0478125,67.6045565 66.628125,59.5925217 64.73125,49.9927304 C74.359375,46.8040696 79.745,42.0160696 79.745,35.9217391 C79.745,30.0462261 73.8709375,24.9633391 64.7515625,21.8185043 C66.79375,11.822087 65.0634375,4.50093913 59.793125,1.4565913 C54.7121875,-1.47850435 47.381875,1.07968696 40.106875,7.42194783 C32.538125,0.69026087 25.2803125,-1.36486957 20.015625,1.68793043 C14.939375,4.63147826 13.4909375,12.2713043 15.3428125,21.7524522 C6.4109375,24.8719304 0.235625,30.0700174 0.235625,35.9217391 Z" id="Shape" fill="#FFFFFF"></path>
                    <path d="M62.8203125,24.9414261 C62.0687402,24.6831738 61.3107913,24.4439327 60.5471875,24.2239304 C60.6738205,23.7084748 60.7909238,23.1907167 60.8984375,22.6709217 C62.6190625,14.3038957 61.4940625,7.56344348 57.6521875,5.3445913 C53.96875,3.21652174 47.944375,5.43537391 41.86,10.7392696 C41.2604635,11.2630987 40.6742347,11.8020185 40.101875,12.355513 C39.7185813,11.987472 39.3285143,11.6265753 38.931875,11.2730087 C32.5553125,5.60128696 26.16375,3.21151304 22.3259375,5.43693913 C18.6459375,7.57095652 17.5559375,13.9078957 19.105,21.837287 C19.2591209,22.622528 19.4331354,23.4037193 19.626875,24.1801043 C18.7225,24.4374261 17.8490625,24.7116522 17.0134375,25.0034087 C9.5378125,27.6141913 4.7634375,31.7062957 4.7634375,35.9505391 C4.7634375,40.3344 9.8884375,44.7314087 17.6753125,47.397287 C18.3067131,47.6124513 18.9433691,47.8118175 19.5846875,47.9952 C19.3763443,48.8316335 19.1913763,49.6737361 19.03,50.5205217 C17.553125,58.3121739 18.7065625,64.4988522 22.376875,66.6197217 C26.1678125,68.8094609 32.5303125,66.5586783 38.7259375,61.1336348 C39.215625,60.7047652 39.7071875,60.249913 40.199375,59.7731478 C40.8193193,60.3723317 41.4558165,60.954088 42.108125,61.5177391 C48.109375,66.6907826 54.03625,68.7797217 57.7034375,66.6532174 C61.4909375,64.4569043 62.7215625,57.8106783 61.1234375,49.7244522 C61.0015625,49.1068174 60.859375,48.4760348 60.7,47.8336696 C61.146875,47.7015652 61.5853125,47.5650783 62.013125,47.4229565 C70.108125,44.7364174 75.3746875,40.3929391 75.3746875,35.9505391 C75.3746875,31.6909565 70.4465625,27.5713043 62.8203125,24.9414261 Z" id="Shape" fill="#53C1DE"></path>
                    <path d="M61.064375,44.5548522 C60.6784375,44.682887 60.2821875,44.8065391 59.8784375,44.9264348 C58.9846875,42.0924522 57.7784375,39.0787826 56.3028125,35.9655652 C57.71125,32.925913 58.870625,29.9510609 59.739375,27.1352348 C60.4615625,27.3449739 61.1628125,27.5656696 61.8384375,27.798887 C68.3728125,30.0518609 72.3584375,33.3835826 72.3584375,35.9505391 C72.3584375,38.6849739 68.05375,42.234887 61.0646875,44.5548522 L61.064375,44.5548522 Z M58.164375,50.3114087 C58.8709375,53.8869913 58.971875,57.1197913 58.50375,59.6469913 C58.083125,61.9178087 57.2375,63.431687 56.191875,64.0380522 C53.9665625,65.3284174 49.2075,63.6511304 44.075625,59.2272 C43.4871875,58.7200696 42.894375,58.1785043 42.3,57.6056348 C44.2896875,55.4256 46.278125,52.8912 48.21875,50.0769391 C51.6325,49.7736 54.8575,49.2774261 57.7821875,48.600313 C57.9259375,49.1825739 58.0540625,49.7532522 58.164375,50.3114087 L58.164375,50.3114087 Z M28.83625,63.8151652 C26.6621875,64.584313 24.930625,64.6062261 23.8840625,64.0017391 C21.6565625,62.7151304 20.7309375,57.7471304 21.99375,51.084 C22.1439188,50.296558 22.3158599,49.5134396 22.509375,48.7355478 C25.4015625,49.3763478 28.603125,49.8374609 32.025,50.1154435 C33.9784375,52.869287 36.024375,55.4005565 38.08625,57.6172174 C37.6480467,58.0418494 37.1994732,58.4556096 36.7409375,58.8581217 C34.00125,61.257287 31.2559375,62.9589913 28.8365625,63.8151652 L28.83625,63.8151652 Z M18.6509375,44.5379478 C15.2078125,43.3590261 12.364375,41.8269913 10.4153125,40.1553391 C8.6640625,38.6527304 7.7796875,37.1610783 7.7796875,35.9505391 C7.7796875,33.3751304 11.613125,30.0897391 18.0065625,27.8568 C18.809031,27.5777585 19.6194823,27.3223099 20.436875,27.0907826 C21.320625,29.9698435 22.4796875,32.9800696 23.8784375,36.0241043 C22.4615625,39.1135304 21.2859375,42.1716522 20.3940625,45.0845217 C19.8086379,44.9166654 19.2274207,44.734419 18.6509375,44.5379478 L18.6509375,44.5379478 Z M22.0653125,21.2569043 C20.738125,14.4629217 21.619375,9.33808696 23.8371875,8.05210435 C26.1996875,6.68222609 31.423125,8.63561739 36.92875,13.5325565 C37.280625,13.8456 37.6340625,14.1733565 37.988125,14.5123826 C35.936875,16.7190261 33.9096875,19.2312 31.973125,21.9690783 C28.6521875,22.2774261 25.473125,22.7726609 22.550625,23.436 C22.3706011,22.7137303 22.2087788,21.98703 22.0653125,21.2565913 L22.0653125,21.2569043 Z M52.52375,28.7909217 C51.8334616,27.5964824 51.1175664,26.4170784 50.3765625,25.2535304 C52.6296875,25.5384 54.788125,25.9171826 56.815,26.3808 C56.2065625,28.3345043 55.448125,30.3774261 54.555,32.471687 C53.9024428,31.2313429 53.2252245,30.0041765 52.52375,28.7909217 L52.52375,28.7909217 Z M40.1028125,16.6717565 C41.4940625,18.1815652 42.8875,19.8676174 44.258125,21.6967304 C41.4778159,21.5651207 38.6928679,21.564494 35.9125,21.6948522 C37.284375,19.8826435 38.6896875,18.1990957 40.1028125,16.6717565 L40.1028125,16.6717565 Z M27.6021875,28.8115826 C26.9094957,30.0151884 26.2449397,31.2348249 25.6090625,32.4694957 C24.730625,30.3824348 23.9790625,28.3304348 23.3653125,26.3488696 C25.38,25.8971478 27.5284375,25.5280696 29.766875,25.2478957 C29.0175667,26.4186546 28.2958052,27.6068778 27.6021875,28.8115826 L27.6021875,28.8115826 Z M29.83125,46.8688696 C27.51875,46.6102957 25.3378125,46.26 23.32375,45.8208 C23.9471875,43.8041739 24.7153125,41.7080348 25.6125,39.5762087 C26.2510579,40.8117947 26.9185341,42.0321668 27.614375,43.236313 C28.3244098,44.4646417 29.0635782,45.675838 29.83125,46.8688696 L29.83125,46.8688696 Z M40.18625,55.4428174 C38.7565625,53.8973217 37.330625,52.1881043 35.9378125,50.3496 C37.2896875,50.4028174 38.668125,50.4297391 40.0690625,50.4297391 C41.5084375,50.4297391 42.93125,50.3974957 44.3315625,50.334887 C42.9565625,52.206887 41.568125,53.9186087 40.18625,55.4428174 Z M54.58375,39.4675826 C55.5275,41.6225739 56.323125,43.7074435 56.955,45.6899478 C54.9075,46.1579478 52.6971875,46.5348522 50.368125,46.814713 C51.1144848,45.6294409 51.837232,44.4294122 52.5359375,43.2153391 C53.2462142,41.9814612 53.9289875,40.7318996 54.58375,39.4675826 L54.58375,39.4675826 Z M49.9228125,41.7058435 C48.8531875,43.5671862 47.7234238,45.3931946 46.5353125,47.1809739 C44.4403125,47.3309217 42.2753125,47.4082435 40.0690625,47.4082435 C37.871875,47.4082435 35.734375,47.339687 33.6759375,47.2060174 C32.4570114,45.4224007 31.3058758,43.593232 30.225,41.7224348 C29.1491764,39.8615633 28.1442856,37.9604369 27.2125,36.0231652 C28.1419156,34.0853132 29.1437697,32.1831684 30.2159375,30.3207652 L30.2159375,30.3213913 C31.2877689,28.4585915 32.429842,26.637244 33.6396875,24.861287 C35.7396875,24.7022609 37.8928125,24.6189913 40.069375,24.6189913 C42.255625,24.6189913 44.4115625,24.702887 46.5109375,24.8631652 C47.7085456,26.6363894 48.8433142,28.451397 49.913125,30.3048 C50.9889796,32.1630597 52.004204,34.0558868 52.9571875,35.9802783 C52.0140069,37.9242763 51.0020114,39.8340084 49.923125,41.7058435 L49.9228125,41.7058435 Z M56.145625,7.96226087 C58.51,9.32838261 59.4296875,14.8370087 57.9440625,22.061113 C57.8466877,22.5317198 57.7408371,23.0005267 57.6265625,23.4673043 C54.6971875,22.7901913 51.5159375,22.2861913 48.1853125,21.9731478 C46.245,19.2055304 44.2346875,16.6889739 42.2165625,14.5108174 C42.7453948,14.000102 43.2868118,13.5026267 43.8403125,13.0188522 C49.0534375,8.47408696 53.925625,6.67972174 56.145625,7.96226087 L56.145625,7.96226087 Z" id="Shape" fill="#FFFFFF"></path>
                    <path d="M40.0690625,29.6342609 C43.5515625,29.6342609 46.374375,32.4622957 46.374375,35.9505391 C46.374375,39.4390957 43.5515625,42.2671304 40.0690625,42.2671304 C36.586875,42.2671304 33.76375,39.4390957 33.76375,35.9505391 C33.76375,32.4622957 36.586875,29.6342609 40.0690625,29.6342609" id="Shape" fill="#53C1DE"></path>
                </g>
            </g>
            <g id="Group-2-Copy-4" transform="translate(239.000000, 561.000000)" stroke="#D3DDEB" stroke-width="2">
                <use id="Rectangle-5" mask="url(#mask-2)" xlink:href="#path-1"></use>
                <use id="Rectangle-5-Copy" mask="url(#mask-4)" xlink:href="#path-3"></use>
            </g>
        </g>
    </g>
</svg>