<?xml version="1.0" encoding="iso-8859-1"?>
<!-- Generator: Adobe Illustrator 19.0.0, SVG Export Plug-In . SVG Version: 6.00 Build 0)  -->
<svg version="1.1" id="Layer_1" xmlns="http://www.w3.org/2000/svg" xmlns:xlink="http://www.w3.org/1999/xlink" x="0px" y="0px"
	 viewBox="0 0 512.096 512.096" style="enable-background:new 0 0 512.096 512.096;" xml:space="preserve">
<path style="fill:#FFD15C;" d="M204.038,1.163c-99.2,11.733-176,86.4-189.867,185.6c-3.2,23.467-2.133,46.933,2.133,69.333h76.8
	c-4.267-5.333-6.4-12.8-6.4-20.267c0-20.267,17.067-37.333,37.333-37.333l0,0l0,0c14.933,0,27.733,8.533,34.133,22.4
	c2.133,4.267,3.2,9.6,3.2,14.933c0,7.467-2.133,13.867-6.4,20.267h101.333V154.763l0,0c5.333,4.267,12.8,6.4,20.267,6.4
	c5.333,0,10.667-1.067,14.933-3.2c12.8-5.333,21.333-19.2,22.4-34.133c0-20.267-17.067-37.333-37.333-37.333
	c-7.467,0-13.867,2.133-20.267,6.4V2.23C239.238,0.096,222.172-0.97,204.038,1.163z"/>
<path style="fill:#F3705A;" d="M276.572,86.496c20.267,0,37.333,17.067,37.333,37.333l0,0l0,0c0,14.933-8.533,27.733-22.4,34.133
	c-4.267,2.133-9.6,3.2-14.933,3.2c-7.467,0-13.867-2.133-20.267-6.4v101.333h101.333l0,0c-4.267,5.333-6.4,12.8-6.4,20.267
	c0,5.333,1.067,10.667,3.2,14.933c5.333,12.8,19.2,21.333,34.133,22.4c20.267,0,37.333-17.067,37.333-37.333
	c0-7.467-2.133-13.867-6.4-20.267h45.867l-21.333-40.533c0-109.867-82.133-200.533-187.733-213.333v90.667
	C261.638,88.63,269.105,86.496,276.572,86.496z"/>
<path style="fill:#E8EAE9;" d="M425.905,276.363c0,20.267-17.067,37.333-37.333,37.333l0,0l0,0c-14.933,0-27.733-8.533-34.133-22.4
	c-2.133-4.267-3.2-9.6-3.2-14.933c0-7.467,2.133-13.867,6.4-20.267H256.305V357.43l0,0c-5.333-4.267-12.8-6.4-20.267-6.4
	c-5.333,0-10.667,1.067-14.933,3.2c-12.8,5.333-21.333,19.2-22.4,34.133c0,20.267,17.067,37.333,37.333,37.333
	c7.467,0,13.867-2.133,20.267-6.4v92.8h129.067V431.03h29.867c16,0,28.8-12.8,28.8-28.8v-66.133h42.667c9.6,0,16-10.667,11.733-19.2
	l-33.067-60.8h-45.867C423.772,261.43,425.905,268.896,425.905,276.363z"/>
<path style="fill:#66C6B9;" d="M236.038,425.696c-20.267,0-37.333-17.067-37.333-37.333l0,0l0,0c0-14.933,8.533-27.733,22.4-34.133
	c4.267-2.133,9.6-3.2,14.933-3.2c7.467,0,13.867,2.133,20.267,6.4V256.096H154.972l0,0c4.267-5.333,6.4-12.8,6.4-20.267
	c0-5.333-1.067-10.667-3.2-14.933c-5.333-12.8-19.2-21.333-34.133-22.4c-20.267,0-37.333,17.067-37.333,37.333
	c0,7.467,2.133,13.867,6.4,20.267h-76.8c8.533,46.933,33.067,88.533,67.2,119.467c39.467,36.267,66.133,84.267,73.6,136.533h99.2
	v-92.8C250.972,423.563,243.505,425.696,236.038,425.696z"/>
<g>
</g>
<g>
</g>
<g>
</g>
<g>
</g>
<g>
</g>
<g>
</g>
<g>
</g>
<g>
</g>
<g>
</g>
<g>
</g>
<g>
</g>
<g>
</g>
<g>
</g>
<g>
</g>
<g>
</g>
</svg>
